<mxfile host="app.diagrams.net" modified="2022-12-23T03:46:47.583Z" agent="5.0 (Windows NT 10.0; Win64; x64) AppleWebKit/537.36 (KHTML, like Gecko) Chrome/108.0.0.0 Safari/537.36 Edg/108.0.1462.54" version="20.7.4" etag="v5_cnQ-L_3UlcZMcG_5i" type="github">
  <diagram id="RFd3I4zxhZ5DhTzvWNwP" name="Page-1">
    <mxGraphModel dx="1002" dy="573" grid="1" gridSize="10" guides="1" tooltips="1" connect="1" arrows="1" fold="1" page="1" pageScale="1" pageWidth="850" pageHeight="1100" math="0" shadow="0">
      <root>
        <mxCell id="0" />
        <mxCell id="1" parent="0" />
        <mxCell id="-Q7WoqPCs8U96o4awJnl-3" value="" style="edgeStyle=orthogonalEdgeStyle;rounded=0;orthogonalLoop=1;jettySize=auto;html=1;" edge="1" parent="1" source="-Q7WoqPCs8U96o4awJnl-1" target="-Q7WoqPCs8U96o4awJnl-2">
          <mxGeometry relative="1" as="geometry" />
        </mxCell>
        <mxCell id="-Q7WoqPCs8U96o4awJnl-1" value="START&lt;br&gt;menu_select(menu_title: str, item_to_select: str, menu_dict: dict)" style="ellipse;whiteSpace=wrap;html=1;rounded=0;" vertex="1" parent="1">
          <mxGeometry x="124.56" width="259.63" height="70" as="geometry" />
        </mxCell>
        <mxCell id="-Q7WoqPCs8U96o4awJnl-2" value="Initialise sel to &quot;&quot;" style="rounded=0;whiteSpace=wrap;html=1;" vertex="1" parent="1">
          <mxGeometry x="194.38" y="110" width="120" height="40" as="geometry" />
        </mxCell>
        <mxCell id="-Q7WoqPCs8U96o4awJnl-4" value="" style="edgeStyle=orthogonalEdgeStyle;rounded=0;orthogonalLoop=1;jettySize=auto;html=1;" edge="1" parent="1" target="-Q7WoqPCs8U96o4awJnl-6">
          <mxGeometry relative="1" as="geometry">
            <mxPoint x="254" y="150" as="sourcePoint" />
          </mxGeometry>
        </mxCell>
        <mxCell id="-Q7WoqPCs8U96o4awJnl-5" value="" style="edgeStyle=orthogonalEdgeStyle;rounded=0;orthogonalLoop=1;jettySize=auto;html=1;" edge="1" parent="1" source="-Q7WoqPCs8U96o4awJnl-6" target="-Q7WoqPCs8U96o4awJnl-8">
          <mxGeometry relative="1" as="geometry" />
        </mxCell>
        <mxCell id="-Q7WoqPCs8U96o4awJnl-6" value="set loop to True" style="rounded=0;whiteSpace=wrap;html=1;" vertex="1" parent="1">
          <mxGeometry x="197.5" y="190" width="113" height="50" as="geometry" />
        </mxCell>
        <mxCell id="-Q7WoqPCs8U96o4awJnl-7" value="" style="edgeStyle=orthogonalEdgeStyle;rounded=0;orthogonalLoop=1;jettySize=auto;html=1;" edge="1" parent="1" source="-Q7WoqPCs8U96o4awJnl-8">
          <mxGeometry relative="1" as="geometry">
            <mxPoint x="254" y="380" as="targetPoint" />
          </mxGeometry>
        </mxCell>
        <mxCell id="-Q7WoqPCs8U96o4awJnl-30" style="edgeStyle=orthogonalEdgeStyle;rounded=0;orthogonalLoop=1;jettySize=auto;html=1;exitX=0;exitY=0.5;exitDx=0;exitDy=0;" edge="1" parent="1" source="-Q7WoqPCs8U96o4awJnl-8">
          <mxGeometry relative="1" as="geometry">
            <mxPoint x="254" y="762" as="targetPoint" />
            <Array as="points">
              <mxPoint x="100" y="310" />
            </Array>
          </mxGeometry>
        </mxCell>
        <mxCell id="-Q7WoqPCs8U96o4awJnl-8" value="loop" style="rhombus;whiteSpace=wrap;html=1;rounded=0;" vertex="1" parent="1">
          <mxGeometry x="205" y="280" width="98" height="60" as="geometry" />
        </mxCell>
        <mxCell id="-Q7WoqPCs8U96o4awJnl-9" value="True" style="text;html=1;strokeColor=none;fillColor=none;align=center;verticalAlign=middle;whiteSpace=wrap;rounded=0;fontFamily=Helvetica;fontSize=12.1;" vertex="1" parent="1">
          <mxGeometry x="247" y="340" width="60" height="30" as="geometry" />
        </mxCell>
        <mxCell id="-Q7WoqPCs8U96o4awJnl-13" value="" style="edgeStyle=orthogonalEdgeStyle;rounded=0;orthogonalLoop=1;jettySize=auto;html=1;" edge="1" parent="1" source="-Q7WoqPCs8U96o4awJnl-11" target="-Q7WoqPCs8U96o4awJnl-12">
          <mxGeometry relative="1" as="geometry" />
        </mxCell>
        <mxCell id="-Q7WoqPCs8U96o4awJnl-11" value="disp_menu(menu_title, menu_dict)" style="shape=process;whiteSpace=wrap;html=1;backgroundOutline=1;size=0.08333333333333333;" vertex="1" parent="1">
          <mxGeometry x="139" y="380" width="230" height="60" as="geometry" />
        </mxCell>
        <mxCell id="-Q7WoqPCs8U96o4awJnl-15" value="" style="edgeStyle=orthogonalEdgeStyle;rounded=0;orthogonalLoop=1;jettySize=auto;html=1;" edge="1" parent="1" source="-Q7WoqPCs8U96o4awJnl-12" target="-Q7WoqPCs8U96o4awJnl-14">
          <mxGeometry relative="1" as="geometry" />
        </mxCell>
        <mxCell id="-Q7WoqPCs8U96o4awJnl-12" value="Prompt user to enter menu option as defined by menu_dict.keys()&amp;nbsp;and store it in&amp;nbsp;&lt;span style=&quot;border-color: var(--border-color);&quot;&gt;sel&lt;/span&gt;" style="shape=parallelogram;perimeter=parallelogramPerimeter;whiteSpace=wrap;html=1;fixedSize=1;" vertex="1" parent="1">
          <mxGeometry x="136.38" y="480" width="236" height="60" as="geometry" />
        </mxCell>
        <mxCell id="-Q7WoqPCs8U96o4awJnl-17" value="" style="edgeStyle=orthogonalEdgeStyle;rounded=0;orthogonalLoop=1;jettySize=auto;html=1;" edge="1" parent="1" source="-Q7WoqPCs8U96o4awJnl-14" target="-Q7WoqPCs8U96o4awJnl-16">
          <mxGeometry relative="1" as="geometry" />
        </mxCell>
        <mxCell id="-Q7WoqPCs8U96o4awJnl-25" value="" style="edgeStyle=orthogonalEdgeStyle;rounded=0;orthogonalLoop=1;jettySize=auto;html=1;" edge="1" parent="1" source="-Q7WoqPCs8U96o4awJnl-14" target="-Q7WoqPCs8U96o4awJnl-24">
          <mxGeometry relative="1" as="geometry" />
        </mxCell>
        <mxCell id="-Q7WoqPCs8U96o4awJnl-14" value="sel not in menu_dict.keys()&lt;br&gt;?" style="rhombus;whiteSpace=wrap;html=1;" vertex="1" parent="1">
          <mxGeometry x="191" y="580" width="126" height="80" as="geometry" />
        </mxCell>
        <mxCell id="-Q7WoqPCs8U96o4awJnl-19" value="" style="edgeStyle=orthogonalEdgeStyle;rounded=0;orthogonalLoop=1;jettySize=auto;html=1;" edge="1" parent="1" source="-Q7WoqPCs8U96o4awJnl-16" target="-Q7WoqPCs8U96o4awJnl-18">
          <mxGeometry relative="1" as="geometry" />
        </mxCell>
        <mxCell id="-Q7WoqPCs8U96o4awJnl-16" value="Display&amp;nbsp;&quot;Option selected is invalid! Please try again&quot;" style="shape=parallelogram;perimeter=parallelogramPerimeter;whiteSpace=wrap;html=1;fixedSize=1;" vertex="1" parent="1">
          <mxGeometry x="350" y="590" width="220" height="60" as="geometry" />
        </mxCell>
        <mxCell id="-Q7WoqPCs8U96o4awJnl-21" value="" style="edgeStyle=orthogonalEdgeStyle;rounded=0;orthogonalLoop=1;jettySize=auto;html=1;" edge="1" parent="1" source="-Q7WoqPCs8U96o4awJnl-18" target="-Q7WoqPCs8U96o4awJnl-20">
          <mxGeometry relative="1" as="geometry" />
        </mxCell>
        <mxCell id="-Q7WoqPCs8U96o4awJnl-18" value="enter_to_continue()" style="shape=process;whiteSpace=wrap;html=1;backgroundOutline=1;" vertex="1" parent="1">
          <mxGeometry x="600" y="590" width="140" height="60" as="geometry" />
        </mxCell>
        <mxCell id="-Q7WoqPCs8U96o4awJnl-22" style="edgeStyle=orthogonalEdgeStyle;rounded=0;orthogonalLoop=1;jettySize=auto;html=1;exitX=0.5;exitY=0;exitDx=0;exitDy=0;" edge="1" parent="1" source="-Q7WoqPCs8U96o4awJnl-20">
          <mxGeometry relative="1" as="geometry">
            <mxPoint x="255" y="260" as="targetPoint" />
            <Array as="points">
              <mxPoint x="835" y="260" />
              <mxPoint x="835" y="260" />
            </Array>
          </mxGeometry>
        </mxCell>
        <mxCell id="-Q7WoqPCs8U96o4awJnl-20" value="continue" style="rounded=0;whiteSpace=wrap;html=1;" vertex="1" parent="1">
          <mxGeometry x="780" y="600" width="110" height="40" as="geometry" />
        </mxCell>
        <mxCell id="-Q7WoqPCs8U96o4awJnl-23" value="True" style="text;html=1;strokeColor=none;fillColor=none;align=center;verticalAlign=middle;whiteSpace=wrap;rounded=0;fontFamily=Helvetica;fontSize=12.1;" vertex="1" parent="1">
          <mxGeometry x="307" y="590" width="60" height="30" as="geometry" />
        </mxCell>
        <mxCell id="-Q7WoqPCs8U96o4awJnl-28" value="" style="edgeStyle=orthogonalEdgeStyle;rounded=0;orthogonalLoop=1;jettySize=auto;html=1;" edge="1" parent="1" source="-Q7WoqPCs8U96o4awJnl-24">
          <mxGeometry relative="1" as="geometry">
            <mxPoint x="254" y="780" as="targetPoint" />
          </mxGeometry>
        </mxCell>
        <mxCell id="-Q7WoqPCs8U96o4awJnl-24" value="break" style="whiteSpace=wrap;html=1;" vertex="1" parent="1">
          <mxGeometry x="201.81" y="700" width="104.38" height="40" as="geometry" />
        </mxCell>
        <mxCell id="-Q7WoqPCs8U96o4awJnl-26" value="False" style="text;html=1;strokeColor=none;fillColor=none;align=center;verticalAlign=middle;whiteSpace=wrap;rounded=0;fontFamily=Helvetica;fontSize=12.1;" vertex="1" parent="1">
          <mxGeometry x="247" y="660" width="60" height="30" as="geometry" />
        </mxCell>
        <mxCell id="-Q7WoqPCs8U96o4awJnl-29" value="Return menu_dict.get(sel)[1]" style="ellipse;whiteSpace=wrap;html=1;" vertex="1" parent="1">
          <mxGeometry x="194" y="780" width="120" height="80" as="geometry" />
        </mxCell>
        <mxCell id="-Q7WoqPCs8U96o4awJnl-31" value="False" style="text;html=1;strokeColor=none;fillColor=none;align=center;verticalAlign=middle;whiteSpace=wrap;rounded=0;fontFamily=Helvetica;fontSize=12.1;" vertex="1" parent="1">
          <mxGeometry x="150" y="280" width="60" height="30" as="geometry" />
        </mxCell>
      </root>
    </mxGraphModel>
  </diagram>
</mxfile>
